<mxfile host="app.diagrams.net" modified="2023-11-26T15:38:55.631Z" agent="Mozilla/5.0 (Windows NT 10.0; Win64; x64) AppleWebKit/537.36 (KHTML, like Gecko) Chrome/119.0.0.0 Safari/537.36" etag="R2leQMQ0sOP91iXYru_Z" version="22.1.4" type="device">
  <diagram id="C5RBs43oDa-KdzZeNtuy" name="Page-1">
    <mxGraphModel dx="1120" dy="478" grid="1" gridSize="10" guides="1" tooltips="1" connect="1" arrows="1" fold="1" page="1" pageScale="1" pageWidth="827" pageHeight="1169" math="0" shadow="0">
      <root>
        <mxCell id="WIyWlLk6GJQsqaUBKTNV-0" />
        <mxCell id="WIyWlLk6GJQsqaUBKTNV-1" parent="WIyWlLk6GJQsqaUBKTNV-0" />
        <mxCell id="CT3zOT9mrddbbfYIUQmI-5" value="" style="edgeStyle=orthogonalEdgeStyle;rounded=0;orthogonalLoop=1;jettySize=auto;html=1;" edge="1" parent="WIyWlLk6GJQsqaUBKTNV-1" source="CT3zOT9mrddbbfYIUQmI-6">
          <mxGeometry relative="1" as="geometry">
            <mxPoint x="190" y="220" as="targetPoint" />
          </mxGeometry>
        </mxCell>
        <mxCell id="CT3zOT9mrddbbfYIUQmI-6" value="start" style="ellipse;whiteSpace=wrap;html=1;" vertex="1" parent="WIyWlLk6GJQsqaUBKTNV-1">
          <mxGeometry y="180" width="120" height="80" as="geometry" />
        </mxCell>
        <mxCell id="CT3zOT9mrddbbfYIUQmI-7" value="" style="edgeStyle=orthogonalEdgeStyle;rounded=0;orthogonalLoop=1;jettySize=auto;html=1;" edge="1" parent="WIyWlLk6GJQsqaUBKTNV-1" source="CT3zOT9mrddbbfYIUQmI-8" target="CT3zOT9mrddbbfYIUQmI-12">
          <mxGeometry relative="1" as="geometry" />
        </mxCell>
        <mxCell id="CT3zOT9mrddbbfYIUQmI-8" value="input a,b,c" style="shape=parallelogram;perimeter=parallelogramPerimeter;whiteSpace=wrap;html=1;fixedSize=1;" vertex="1" parent="WIyWlLk6GJQsqaUBKTNV-1">
          <mxGeometry x="180" y="190" width="120" height="60" as="geometry" />
        </mxCell>
        <mxCell id="CT3zOT9mrddbbfYIUQmI-9" value="" style="edgeStyle=orthogonalEdgeStyle;rounded=0;orthogonalLoop=1;jettySize=auto;html=1;" edge="1" parent="WIyWlLk6GJQsqaUBKTNV-1" source="CT3zOT9mrddbbfYIUQmI-10" target="CT3zOT9mrddbbfYIUQmI-14">
          <mxGeometry relative="1" as="geometry" />
        </mxCell>
        <mxCell id="CT3zOT9mrddbbfYIUQmI-10" value="devide(a,b)" style="rhombus;whiteSpace=wrap;html=1;" vertex="1" parent="WIyWlLk6GJQsqaUBKTNV-1">
          <mxGeometry x="520" y="180" width="80" height="80" as="geometry" />
        </mxCell>
        <mxCell id="CT3zOT9mrddbbfYIUQmI-11" value="" style="edgeStyle=orthogonalEdgeStyle;rounded=0;orthogonalLoop=1;jettySize=auto;html=1;" edge="1" parent="WIyWlLk6GJQsqaUBKTNV-1" source="CT3zOT9mrddbbfYIUQmI-12" target="CT3zOT9mrddbbfYIUQmI-10">
          <mxGeometry relative="1" as="geometry" />
        </mxCell>
        <mxCell id="CT3zOT9mrddbbfYIUQmI-12" value="output a + b" style="shape=parallelogram;perimeter=parallelogramPerimeter;whiteSpace=wrap;html=1;fixedSize=1;" vertex="1" parent="WIyWlLk6GJQsqaUBKTNV-1">
          <mxGeometry x="360" y="190" width="120" height="60" as="geometry" />
        </mxCell>
        <mxCell id="CT3zOT9mrddbbfYIUQmI-13" value="" style="edgeStyle=orthogonalEdgeStyle;rounded=0;orthogonalLoop=1;jettySize=auto;html=1;" edge="1" parent="WIyWlLk6GJQsqaUBKTNV-1" source="CT3zOT9mrddbbfYIUQmI-14" target="CT3zOT9mrddbbfYIUQmI-18">
          <mxGeometry relative="1" as="geometry" />
        </mxCell>
        <mxCell id="CT3zOT9mrddbbfYIUQmI-14" value="output a - b" style="shape=parallelogram;perimeter=parallelogramPerimeter;whiteSpace=wrap;html=1;fixedSize=1;" vertex="1" parent="WIyWlLk6GJQsqaUBKTNV-1">
          <mxGeometry x="650" y="190" width="120" height="60" as="geometry" />
        </mxCell>
        <mxCell id="CT3zOT9mrddbbfYIUQmI-15" value="" style="edgeStyle=orthogonalEdgeStyle;rounded=0;orthogonalLoop=1;jettySize=auto;html=1;" edge="1" parent="WIyWlLk6GJQsqaUBKTNV-1" source="CT3zOT9mrddbbfYIUQmI-16" target="CT3zOT9mrddbbfYIUQmI-20">
          <mxGeometry relative="1" as="geometry" />
        </mxCell>
        <mxCell id="CT3zOT9mrddbbfYIUQmI-16" value="devide(a,c)" style="rhombus;whiteSpace=wrap;html=1;" vertex="1" parent="WIyWlLk6GJQsqaUBKTNV-1">
          <mxGeometry x="980" y="180" width="80" height="80" as="geometry" />
        </mxCell>
        <mxCell id="CT3zOT9mrddbbfYIUQmI-17" value="" style="edgeStyle=orthogonalEdgeStyle;rounded=0;orthogonalLoop=1;jettySize=auto;html=1;" edge="1" parent="WIyWlLk6GJQsqaUBKTNV-1" source="CT3zOT9mrddbbfYIUQmI-18" target="CT3zOT9mrddbbfYIUQmI-16">
          <mxGeometry relative="1" as="geometry" />
        </mxCell>
        <mxCell id="CT3zOT9mrddbbfYIUQmI-18" value="output b + c" style="shape=parallelogram;perimeter=parallelogramPerimeter;whiteSpace=wrap;html=1;fixedSize=1;" vertex="1" parent="WIyWlLk6GJQsqaUBKTNV-1">
          <mxGeometry x="820" y="190" width="120" height="60" as="geometry" />
        </mxCell>
        <mxCell id="CT3zOT9mrddbbfYIUQmI-19" value="" style="edgeStyle=orthogonalEdgeStyle;rounded=0;orthogonalLoop=1;jettySize=auto;html=1;" edge="1" parent="WIyWlLk6GJQsqaUBKTNV-1" source="CT3zOT9mrddbbfYIUQmI-20" target="CT3zOT9mrddbbfYIUQmI-24">
          <mxGeometry relative="1" as="geometry" />
        </mxCell>
        <mxCell id="CT3zOT9mrddbbfYIUQmI-20" value="output b - c&amp;nbsp;" style="shape=parallelogram;perimeter=parallelogramPerimeter;whiteSpace=wrap;html=1;fixedSize=1;" vertex="1" parent="WIyWlLk6GJQsqaUBKTNV-1">
          <mxGeometry x="1120" y="190" width="120" height="60" as="geometry" />
        </mxCell>
        <mxCell id="CT3zOT9mrddbbfYIUQmI-21" value="" style="edgeStyle=orthogonalEdgeStyle;rounded=0;orthogonalLoop=1;jettySize=auto;html=1;" edge="1" parent="WIyWlLk6GJQsqaUBKTNV-1" source="CT3zOT9mrddbbfYIUQmI-22" target="CT3zOT9mrddbbfYIUQmI-25">
          <mxGeometry relative="1" as="geometry" />
        </mxCell>
        <mxCell id="CT3zOT9mrddbbfYIUQmI-22" value="devide(b,c)" style="rhombus;whiteSpace=wrap;html=1;" vertex="1" parent="WIyWlLk6GJQsqaUBKTNV-1">
          <mxGeometry x="1470" y="180" width="80" height="80" as="geometry" />
        </mxCell>
        <mxCell id="CT3zOT9mrddbbfYIUQmI-23" value="" style="edgeStyle=orthogonalEdgeStyle;rounded=0;orthogonalLoop=1;jettySize=auto;html=1;" edge="1" parent="WIyWlLk6GJQsqaUBKTNV-1" source="CT3zOT9mrddbbfYIUQmI-24" target="CT3zOT9mrddbbfYIUQmI-22">
          <mxGeometry relative="1" as="geometry" />
        </mxCell>
        <mxCell id="CT3zOT9mrddbbfYIUQmI-24" value="output a + c" style="shape=parallelogram;perimeter=parallelogramPerimeter;whiteSpace=wrap;html=1;fixedSize=1;" vertex="1" parent="WIyWlLk6GJQsqaUBKTNV-1">
          <mxGeometry x="1310" y="190" width="120" height="60" as="geometry" />
        </mxCell>
        <mxCell id="CT3zOT9mrddbbfYIUQmI-25" value="output a - c" style="shape=parallelogram;perimeter=parallelogramPerimeter;whiteSpace=wrap;html=1;fixedSize=1;" vertex="1" parent="WIyWlLk6GJQsqaUBKTNV-1">
          <mxGeometry x="1610" y="190" width="120" height="60" as="geometry" />
        </mxCell>
      </root>
    </mxGraphModel>
  </diagram>
</mxfile>
